<?xml version="1.0" standalone="no"?>
<!DOCTYPE svg PUBLIC "-//W3C//DTD SVG 20010904//EN"
 "http://www.w3.org/TR/2001/REC-SVG-20010904/DTD/svg10.dtd">
<svg version="1.0" xmlns="http://www.w3.org/2000/svg"
 width="1271.000000pt" height="1383.000000pt" viewBox="0 0 1271.000000 1383.000000"
 preserveAspectRatio="xMidYMid meet">
<metadata>
Created by potrace 1.16, written by Peter Selinger 2001-2019
</metadata>
<g transform="translate(0.000000,1383.000000) scale(0.100000,-0.100000)"
fill="#000000" stroke="none">
<path d="M9195 13703 c-38 -1 -134 -8 -213 -14 -111 -9 -142 -15 -138 -25 3
-7 86 -121 186 -253 99 -132 180 -244 180 -248 0 -5 -71 -32 -158 -62 -908
-310 -1947 -913 -2917 -1692 -383 -307 -576 -482 -1115 -1010 -522 -511 -766
-772 -1039 -1109 -849 -1049 -1461 -2236 -1857 -3600 -242 -833 -351 -1562
-315 -2095 21 -309 68 -553 155 -820 253 -768 809 -1389 1601 -1790 135 -69
407 -185 432 -185 4 0 -51 39 -122 86 -189 126 -308 217 -414 319 -413 395
-658 917 -747 1586 -21 164 -29 561 -15 759 67 921 371 1926 946 3130 374 783
756 1408 1244 2034 731 939 1653 1793 2706 2508 294 200 708 456 1010 626 284
159 1064 532 1114 532 4 0 108 -137 230 -304 l222 -304 107 80 c426 321 901
558 1348 673 282 73 586 106 799 87 66 -6 121 -9 123 -7 15 15 -447 333 -653
450 -672 383 -1453 602 -2290 645 -190 9 -248 10 -410 3z"/>
<path d="M3485 11239 c-728 -526 -1552 -1316 -2428 -2327 -266 -307 -691 -825
-704 -857 -2 -7 89 -133 203 -280 207 -267 207 -268 195 -299 -45 -113 -187
-560 -225 -706 -134 -517 -182 -912 -173 -1410 6 -310 11 -369 53 -620 103
-626 343 -1171 729 -1657 78 -98 268 -298 329 -346 36 -29 33 -23 -32 61 -280
364 -456 827 -529 1397 -25 196 -25 751 0 975 48 426 121 791 242 1205 57 196
148 458 160 462 6 2 127 -89 270 -201 202 -158 261 -200 266 -187 3 9 9 72 12
141 35 701 320 1714 787 2794 269 623 671 1419 970 1919 12 20 20 37 18 37 -1
0 -66 -46 -143 -101z"/>
<path d="M10265 10869 c-855 -60 -1798 -303 -2755 -712 -302 -129 -674 -313
-664 -329 5 -7 111 -156 236 -331 l227 -319 -76 -60 c-362 -288 -919 -869
-1346 -1405 -1200 -1506 -1926 -3118 -2081 -4623 -70 -676 26 -1238 286 -1681
216 -366 521 -641 947 -852 250 -124 491 -207 791 -271 219 -47 562 -87 723
-85 71 1 72 1 27 11 -331 69 -588 154 -810 269 -509 261 -841 684 -984 1254
-122 483 -112 1087 30 1810 148 753 423 1431 912 2245 499 831 1211 1740 2033
2594 l134 139 245 -316 c135 -174 247 -316 250 -316 7 -1 50 101 50 118 0 19
90 184 182 334 146 235 382 550 603 802 440 504 1075 1116 1653 1594 145 120
151 126 125 132 -41 10 -597 8 -738 -2z"/>
<path d="M10540 5609 c-231 -22 -570 -93 -799 -168 -396 -131 -836 -360 -1158
-603 -51 -39 -93 -71 -93 -73 0 -1 54 -41 120 -89 66 -48 130 -96 142 -109 13
-12 82 -64 155 -116 l131 -94 -38 -39 c-104 -108 -287 -507 -420 -913 -58
-178 -140 -490 -140 -533 0 -16 -11 -93 -24 -173 -62 -368 -59 -686 11 -907
76 -242 292 -412 613 -484 93 -20 131 -23 330 -23 213 0 231 2 335 28 553 139
1069 425 1580 878 136 120 405 393 506 514 152 182 150 187 -11 30 -275 -267
-496 -450 -750 -620 -270 -181 -493 -290 -716 -351 -89 -25 -116 -28 -264 -28
-160 -1 -168 0 -251 30 -112 40 -207 104 -301 202 -324 339 -331 860 -22 1544
86 189 275 518 299 518 5 0 117 -52 248 -116 130 -64 240 -115 242 -112 3 3
-2 34 -10 69 -26 105 -31 335 -10 479 53 373 214 792 457 1183 26 43 48 80 48
83 0 6 -102 3 -210 -7z"/>
<path d="M12428 3177 c-654 -786 -1118 -1235 -1643 -1587 -55 -37 -238 -153
-406 -258 -168 -104 -368 -231 -445 -282 -427 -282 -876 -404 -1419 -387 -256
9 -540 50 -720 104 l-60 19 237 159 c131 88 237 163 238 168 0 4 -13 7 -29 7
-59 0 -249 43 -376 84 -226 75 -454 202 -640 358 -249 209 -474 489 -626 782
l-58 111 -54 -115 c-181 -384 -270 -770 -284 -1225 -5 -191 7 -459 24 -502 5
-12 58 -13 372 -7 l366 7 71 -36 c424 -213 1103 -254 1809 -107 331 69 1026
379 1545 688 839 500 1592 1194 2079 1912 84 125 205 320 198 320 -1 0 -81
-96 -179 -213z"/>
</g>
</svg>
