<?xml version="1.0" standalone="no"?>
<!DOCTYPE svg PUBLIC "-//W3C//DTD SVG 20010904//EN"
 "http://www.w3.org/TR/2001/REC-SVG-20010904/DTD/svg10.dtd">
<svg version="1.0" xmlns="http://www.w3.org/2000/svg"
 width="745.000000pt" height="533.000000pt" viewBox="0 0 745.000000 533.000000"
 preserveAspectRatio="xMidYMid meet">
<metadata>
Created by potrace 1.16, written by Peter Selinger 2001-2019
</metadata>
<g transform="translate(0.000000,533.000000) scale(0.100000,-0.100000)"
fill="#000000" stroke="none">
<path d="M3205 5290 c-11 -4 -23 -6 -27 -3 -5 2 -8 -1 -8 -8 0 -8 -14 -10 -49
-6 -40 5 -54 2 -75 -14 -20 -16 -30 -18 -46 -9 -11 6 -25 8 -30 5 -8 -5 -89
-15 -132 -16 -10 0 -18 -5 -18 -11 0 -5 -7 -7 -16 -4 -9 3 -21 3 -27 -1 -7 -5
-23 -8 -37 -8 -18 0 -25 -5 -24 -18 1 -10 -3 -16 -10 -14 -6 3 -10 10 -8 16 1
6 -2 11 -8 11 -5 0 -10 -7 -10 -15 0 -8 -5 -15 -11 -15 -5 0 -8 4 -4 9 3 6 -3
9 -14 8 -19 -1 -22 -12 -8 -33 10 -18 -20 -37 -48 -32 -14 3 -28 1 -31 -3 -3
-5 0 -9 6 -9 6 0 8 -5 4 -12 -5 -8 -10 -7 -18 4 -13 18 -80 18 -98 0 -7 -7
-20 -12 -29 -12 -9 0 -20 -7 -23 -16 -4 -10 -2 -13 7 -7 6 4 25 8 40 9 23 1
28 -2 24 -16 -3 -13 0 -16 14 -13 15 4 17 8 8 19 -7 8 -9 17 -5 21 3 4 13 -2
21 -13 11 -13 14 -14 13 -4 -2 8 -7 19 -13 23 -6 5 -1 6 10 4 11 -2 19 -9 17
-15 -3 -18 12 -15 42 9 15 11 33 18 41 15 8 -3 15 -1 15 5 0 6 4 7 10 4 5 -3
23 1 40 10 16 8 30 13 30 10 0 -3 11 2 25 11 13 8 29 13 35 9 6 -4 22 1 36 10
13 9 29 13 34 10 6 -3 10 -2 10 3 0 6 -7 13 -16 16 -21 8 -26 8 -20 -3 3 -4
-7 -6 -22 -4 -24 3 -25 2 -7 -7 16 -8 14 -9 -11 -4 -23 4 -33 1 -38 -11 -3 -9
-11 -13 -16 -10 -8 5 -8 11 0 20 7 9 8 14 0 17 -10 3 62 10 115 10 16 1 31 -4
33 -10 3 -9 29 -7 62 5 8 4 18 6 22 5 3 -1 12 5 18 13 14 17 35 20 24 4 -4 -8
-1 -8 12 -1 11 6 24 11 29 12 6 1 9 6 8 11 -2 5 4 9 12 9 8 0 15 -5 15 -11 0
-5 5 -7 11 -4 5 4 25 9 42 12 18 3 40 9 50 14 9 6 22 7 27 4 6 -3 10 -1 10 4
0 6 5 11 11 11 5 0 8 -4 4 -10 -4 -7 51 6 63 15 7 6 -76 1 -93 -5z"/>
<path d="M3370 5158 c-63 -66 -115 -123 -116 -127 -4 -32 -19 -61 -35 -66 -10
-4 -19 -14 -19 -23 0 -15 -2 -15 -10 -2 -7 11 -1 22 20 42 17 15 30 30 30 35
0 4 -33 -26 -74 -66 -41 -41 -74 -77 -74 -80 4 -20 -17 -61 -33 -66 -10 -4
-19 -14 -19 -23 0 -15 -2 -15 -10 -2 -7 11 -1 22 20 42 17 15 30 30 30 35 0 4
-33 -26 -74 -66 -41 -41 -74 -79 -73 -85 1 -6 -3 -10 -10 -9 -6 1 -25 -13 -42
-32 l-30 -35 2 -372 2 -373 318 -3 317 -2 0 700 c0 385 -2 700 -3 699 -1 0
-54 -55 -117 -121z m100 -608 c0 -427 -3 -650 -10 -650 -11 0 -15 1282 -3
1293 3 4 8 7 10 7 2 0 3 -292 3 -650z"/>
<path d="M2558 5178 c-21 -6 -38 -13 -38 -18 0 -4 -22 -10 -50 -14 -27 -4 -50
-12 -50 -17 0 -7 -10 -9 -24 -5 -16 4 -26 1 -30 -9 -3 -8 -11 -15 -18 -15 -9
0 -9 3 2 11 11 8 9 9 -10 3 -14 -4 -27 -10 -30 -13 -3 -4 -18 -8 -34 -9 -17
-1 -33 -7 -37 -13 -3 -6 -9 -10 -13 -10 -23 3 -27 -2 -6 -10 22 -7 20 -8 -10
-5 -19 2 -46 -1 -60 -7 -28 -12 -35 -14 -52 -16 -7 -2 -4 -6 7 -10 17 -7 17
-8 -7 -13 -15 -3 -25 -1 -22 3 3 5 1 9 -5 9 -5 0 -13 -5 -16 -10 -4 -6 -11 -8
-16 -5 -5 4 -9 4 -9 0 0 -3 10 -10 23 -14 16 -7 9 -8 -27 -6 -48 4 -58 -6 -11
-11 13 -1 35 -10 47 -18 21 -15 21 -16 3 -16 -17 0 -17 -2 -5 -10 8 -5 24 -7
35 -5 17 4 16 3 -3 -6 -18 -10 -25 -9 -40 4 -21 19 -42 22 -42 7 0 -7 -7 -7
-20 0 -11 6 -37 8 -58 5 -24 -3 -30 -2 -18 3 13 5 16 11 9 15 -6 4 -17 2 -25
-5 -7 -7 -19 -13 -25 -14 -29 -2 -33 -5 -33 -19 0 -8 -5 -15 -11 -15 -5 0 -7
4 -4 10 4 6 -1 7 -11 3 -14 -5 -13 -8 7 -19 13 -7 20 -14 14 -14 -5 -1 -1 -5
10 -10 l20 -9 -20 -1 c-11 -1 -27 -3 -35 -4 -8 0 -22 8 -31 18 -13 16 -16 17
-16 3 0 -9 4 -14 9 -11 4 3 8 3 8 0 0 -3 -10 -10 -22 -17 -17 -9 -20 -9 -15 3
8 22 -23 16 -69 -12 -21 -14 -41 -25 -44 -25 -3 0 -20 -6 -38 -14 -24 -10 -30
-16 -20 -22 9 -6 6 -9 -11 -9 -19 0 -23 -4 -19 -25 5 -21 -3 -32 -15 -22 -2 1
-12 -5 -23 -13 -19 -14 -19 -14 0 8 11 12 16 22 11 22 -4 0 -1 8 6 17 12 14
11 14 -13 -1 -15 -10 -25 -23 -22 -28 4 -6 1 -9 -7 -6 -8 3 -18 -1 -24 -9 -5
-7 -20 -15 -32 -17 -25 -5 -83 -46 -83 -58 0 -5 -5 -6 -12 -2 -7 5 -8 3 -3 -6
6 -10 11 -9 21 5 8 10 17 15 21 12 3 -4 3 -7 -2 -7 -4 0 -2 -6 4 -14 9 -11 3
-13 -33 -10 -37 3 -47 1 -56 -16 -6 -11 -8 -20 -5 -20 3 0 1 -9 -5 -19 -8 -16
-6 -21 10 -26 11 -3 20 -11 20 -16 0 -13 -9 -11 -26 6 -8 8 -21 12 -29 8 -9
-3 -23 1 -32 8 -10 8 -14 9 -10 2 4 -6 3 -14 -3 -18 -6 -4 -8 -10 -5 -15 3 -5
0 -12 -6 -16 -8 -4 -9 -3 -5 4 4 7 2 12 -5 12 -8 0 -7 5 2 17 12 14 10 14 -13
-1 -16 -10 -28 -26 -28 -35 1 -13 3 -13 17 4 13 16 15 17 10 3 -4 -12 -1 -18
10 -18 13 0 13 -3 3 -15 -7 -8 -18 -15 -24 -14 -27 3 -47 -2 -42 -10 4 -5 0
-12 -6 -14 -8 -4 -4 -8 9 -12 24 -8 28 -21 15 -42 -6 -10 -12 -10 -28 2 -21
16 -60 20 -68 6 -3 -4 5 -7 17 -6 12 1 14 0 5 -2 -10 -2 -18 -11 -18 -19 0 -8
-5 -12 -10 -9 -6 4 -8 10 -5 15 3 5 1 11 -5 15 -6 4 -5 11 3 19 6 8 15 12 20
9 4 -2 7 0 7 6 0 6 16 1 35 -10 21 -12 35 -16 35 -10 0 7 -7 14 -15 17 -25 10
-6 65 20 59 5 -1 7 0 3 2 -4 2 -4 12 -1 21 4 10 -3 7 -18 -9 -13 -14 -40 -36
-59 -49 -41 -28 -51 -40 -43 -54 4 -5 -1 -7 -9 -3 -11 4 -18 -1 -21 -15 -3
-11 -10 -17 -15 -14 -5 3 -22 -4 -36 -15 -21 -17 -24 -24 -15 -35 7 -8 9 -17
5 -21 -3 -3 -6 -1 -6 5 0 19 -17 14 -44 -13 -14 -13 -20 -27 -15 -30 5 -4 9
-12 8 -18 0 -9 -2 -9 -6 1 -2 6 -10 12 -17 12 -17 0 -48 -35 -39 -43 3 -4 -1
-7 -10 -7 -9 0 -19 -4 -22 -10 -3 -5 0 -7 8 -4 20 7 28 -8 16 -26 -9 -12 -12
-12 -16 -2 -8 21 -53 -26 -45 -47 5 -14 3 -14 -10 -3 -14 11 -18 10 -28 -10
-11 -22 -10 -22 4 -4 10 12 16 15 16 7 0 -9 10 -12 32 -9 19 3 38 0 45 -7 10
-10 2 -12 -37 -10 -28 2 -50 0 -50 -5 0 -4 4 -10 9 -12 5 -1 3 -9 -5 -16 -12
-11 -14 -9 -14 8 0 29 -17 21 -57 -26 -21 -27 -28 -41 -18 -41 8 0 12 4 10 8
-3 3 2 12 10 19 22 18 18 -3 -5 -33 -22 -28 -27 -45 -8 -29 10 8 13 4 14 -14
1 -13 -2 -24 -7 -24 -5 0 -12 -1 -16 -2 -6 -3 -13 20 -15 50 -1 8 -7 7 -19 -4
-10 -9 -16 -21 -13 -25 3 -5 -1 -11 -8 -14 -8 -3 -14 -15 -15 -25 -1 -11 2
-18 7 -15 12 7 3 -60 -10 -86 -6 -11 -9 -23 -6 -27 2 -4 -8 -7 -23 -8 -22 -1
-27 4 -27 20 1 12 7 25 14 29 6 4 12 13 12 19 0 6 7 19 16 29 10 11 12 19 5
24 -6 3 -16 -6 -23 -22 -7 -15 -23 -42 -36 -60 -15 -20 -19 -34 -12 -38 6 -3
7 -11 4 -17 -4 -7 -2 -8 4 -4 19 12 14 -8 -8 -32 -26 -28 -25 -35 3 -26 21 6
21 6 4 -13 -9 -11 -17 -26 -18 -34 -1 -8 -5 2 -9 21 -5 19 -4 42 1 52 12 22
11 41 -1 33 -6 -4 -8 -11 -5 -16 4 -5 1 -9 -5 -9 -6 0 -8 -4 -5 -10 3 -5 2
-10 -3 -10 -14 0 -74 -118 -67 -130 3 -6 2 -10 -4 -10 -6 0 -7 -8 -4 -17 6
-15 7 -14 13 3 4 10 5 24 3 30 -2 6 3 16 11 23 12 10 19 6 40 -26 14 -21 26
-42 26 -48 0 -5 -4 -4 -9 4 -7 10 -13 11 -30 2 -17 -9 -20 -9 -15 3 3 8 1 17
-5 21 -7 3 -11 -2 -11 -14 0 -24 -10 -27 -29 -8 -9 8 -12 8 -7 0 3 -6 1 -13
-6 -15 -7 -3 -11 -22 -10 -47 2 -35 -1 -42 -14 -37 -12 4 -14 1 -9 -14 4 -13
-1 -27 -14 -42 -12 -12 -21 -29 -21 -37 0 -10 5 -7 13 8 6 14 19 27 27 29 8 3
12 1 8 -3 -4 -4 -3 -16 3 -26 7 -15 6 -19 -5 -19 -10 0 -13 6 -9 17 4 11 3 14
-6 9 -7 -4 -10 -20 -8 -34 2 -15 2 -21 0 -14 -3 6 -11 12 -20 12 -13 0 -13 -3
-3 -15 10 -12 10 -15 -3 -15 -15 0 -32 -44 -22 -60 3 -5 1 -11 -5 -15 -6 -4
-8 -10 -5 -15 7 -12 14 -122 7 -115 -7 6 -42 -25 -42 -37 0 -4 10 -8 23 -8 17
0 19 2 7 10 -8 5 -11 12 -7 16 10 10 17 1 23 -30 4 -25 3 -26 -17 -16 -11 7
-23 9 -26 7 -2 -3 4 -10 15 -16 23 -12 38 -53 16 -44 -8 3 -14 11 -14 19 0 21
-17 17 -23 -6 -3 -11 -1 -18 4 -14 5 3 9 1 9 -5 0 -5 -5 -11 -11 -13 -13 -4
-26 -257 -14 -285 4 -10 7 -37 6 -61 -3 -50 11 -72 40 -65 18 5 20 1 17 -39
-2 -25 -9 -51 -16 -57 -13 -12 -12 1 5 62 2 9 0 17 -6 17 -6 0 -11 -8 -12 -17
0 -15 -2 -15 -9 2 -8 19 -9 19 -9 -2 -1 -13 4 -23 9 -23 6 0 8 -10 5 -22 -7
-30 29 -88 39 -63 3 9 4 20 1 24 -2 4 1 8 8 8 7 0 12 -13 12 -29 0 -15 -3 -28
-7 -28 -5 0 -8 -12 -8 -26 0 -14 -4 -23 -10 -19 -6 3 -10 2 -10 -3 0 -6 7 -12
15 -16 8 -3 15 -13 15 -23 0 -16 -2 -16 -11 -3 -9 12 -10 11 -4 -5 4 -11 9
-29 11 -40 7 -32 33 -101 35 -90 5 34 6 42 7 59 4 43 16 1 17 -62 1 -37 0 -52
-2 -34 -2 18 -8 30 -13 27 -11 -7 -1 -45 16 -66 8 -9 11 -19 7 -22 -3 -4 2 -7
12 -7 15 0 16 3 7 12 -19 19 -14 25 21 24 l32 -1 0 -77 c0 -67 -2 -75 -15 -65
-13 10 -13 10 -2 -5 9 -11 25 -16 47 -14 24 1 32 -1 28 -11 -6 -16 -19 -17
-29 -1 -13 21 -22 -25 -10 -51 l10 -24 13 29 c8 20 12 23 13 11 0 -10 -5 -27
-10 -37 -8 -15 -5 -24 13 -44 13 -14 27 -23 30 -19 4 3 7 -1 7 -11 0 -10 -5
-14 -12 -10 -7 4 -8 3 -4 -4 5 -9 13 -8 29 2 19 13 25 13 41 0 11 -7 16 -17
13 -21 -4 -3 -14 2 -22 13 -8 10 -15 14 -15 9 0 -6 5 -16 12 -23 9 -9 9 -15
-1 -25 -11 -10 -13 -9 -8 5 7 19 -7 33 -24 23 -7 -5 -2 -16 12 -31 12 -13 19
-24 14 -24 -4 0 1 -8 11 -18 10 -9 20 -24 22 -32 7 -29 23 -40 43 -29 15 8 19
6 19 -6 0 -9 4 -14 8 -11 4 2 9 -6 10 -20 1 -13 -3 -24 -8 -24 -5 0 -7 8 -3
18 5 14 3 15 -8 4 -16 -15 -2 -32 28 -35 13 -1 19 -6 16 -15 -5 -11 -7 -11
-14 0 -5 7 -9 8 -9 2 0 -14 33 -44 49 -44 8 0 11 6 7 16 -3 9 -6 18 -6 20 0 3
-5 2 -10 -1 -6 -4 -7 -11 -4 -17 5 -7 2 -8 -5 -4 -15 10 14 46 38 46 12 0 12
-3 3 -12 -14 -14 -16 -32 -2 -23 6 3 7 -1 4 -10 -5 -11 -2 -14 10 -9 12 4 16
0 16 -16 0 -17 4 -20 23 -15 17 5 19 4 7 -4 -15 -10 -13 -12 12 -15 6 0 13 -8
15 -16 4 -13 3 -13 -6 0 -10 13 -11 13 -12 0 -1 -8 -1 -18 0 -22 0 -5 -4 -8
-10 -8 -6 0 -9 6 -6 14 3 8 -1 20 -9 26 -11 10 -14 10 -14 1 0 -7 -4 -10 -9
-7 -5 3 -7 14 -4 25 5 22 -18 34 -38 19 -11 -8 -10 -9 3 -4 10 3 18 1 18 -4 0
-19 2 -25 12 -37 6 -7 15 -10 21 -6 6 4 7 1 2 -7 -4 -7 -4 -15 1 -19 5 -3 30
-29 57 -58 26 -29 47 -50 47 -47 0 2 8 0 18 -5 14 -7 19 -6 19 3 0 7 -7 13
-16 12 -11 -1 -15 6 -13 18 3 17 2 18 -12 7 -14 -12 -16 -12 -11 2 5 10 1 15
-12 14 -12 -1 -17 4 -15 15 2 12 -2 16 -12 12 -8 -3 -17 -1 -21 5 -4 7 0 8 11
4 13 -5 15 -3 9 8 -8 12 -6 12 9 0 9 -8 15 -20 12 -28 -3 -7 -1 -13 4 -13 9 0
14 13 12 31 -1 4 10 7 24 6 15 0 21 -2 16 -6 -6 -4 -9 -15 -7 -26 2 -11 4 -23
4 -27 1 -5 8 -8 16 -8 9 0 15 -9 15 -24 0 -14 5 -28 11 -31 6 -4 8 -14 5 -22
-6 -14 78 -100 153 -157 l26 -20 -19 22 c-22 26 -11 30 16 5 10 -9 18 -11 18
-5 0 6 -5 14 -11 18 -8 4 -7 9 2 15 10 6 10 9 2 9 -7 0 -10 7 -7 15 4 8 10 12
15 10 10 -7 6 -76 -6 -96 -5 -8 -5 -11 0 -7 4 4 18 -6 32 -23 18 -21 29 -27
38 -19 12 10 25 4 25 -12 0 -5 -6 -6 -13 -3 -6 3 -3 0 7 -7 11 -7 29 -22 40
-33 12 -11 27 -19 33 -17 7 2 13 -4 13 -11 0 -20 15 -24 88 -22 59 1 65 0 73
-23 7 -19 6 -29 -6 -42 -18 -20 -4 -37 18 -23 18 11 38 13 31 2 -3 -5 -10 -7
-15 -4 -5 4 -9 -1 -9 -10 0 -9 6 -15 13 -14 19 3 48 -12 41 -22 -3 -5 2 -6 10
-3 22 9 20 24 -3 24 -28 0 -34 15 -13 31 16 13 16 13 2 -5 -13 -17 -13 -19 0
-14 8 3 23 1 33 -4 15 -8 16 -12 5 -25 -10 -13 -9 -18 10 -33 20 -16 68 -17
58 -1 -2 3 7 7 21 8 19 1 22 -1 12 -8 -12 -7 -11 -9 2 -9 9 0 19 3 23 7 11 11
45 13 51 3 4 -6 -8 -10 -27 -10 -22 0 -29 -3 -19 -9 9 -6 10 -11 2 -15 -6 -4
-11 -2 -11 5 0 6 -8 9 -20 6 -11 -3 -18 -1 -14 4 7 11 -7 11 -25 0 -11 -7 -9
-10 8 -16 11 -3 26 -3 33 1 8 5 9 2 5 -9 -3 -9 -3 -16 1 -15 4 1 26 -8 50 -20
23 -13 47 -20 51 -17 5 2 11 -1 14 -9 3 -7 45 -32 93 -55 67 -32 89 -39 95
-29 7 10 9 8 9 -5 0 -14 7 -18 28 -17 42 3 48 1 32 -11 -13 -9 -12 -10 3 -5 9
3 17 1 17 -5 0 -6 5 -7 10 -4 6 3 10 1 10 -6 0 -8 5 -7 17 2 10 8 14 9 10 2
-12 -20 8 -23 21 -2 8 12 9 19 1 19 -5 0 -7 5 -4 10 9 15 45 12 45 -4 0 -8 -9
-18 -20 -21 -11 -3 -20 -14 -20 -23 1 -15 3 -14 15 2 13 17 19 16 17 -5 0 -3
8 -10 19 -17 10 -7 19 -8 19 -3 0 5 -6 12 -12 14 -10 4 -10 6 -1 6 6 1 15 -3
18 -9 3 -5 11 -10 16 -10 6 0 7 5 4 10 -8 13 5 13 25 0 8 -5 10 -10 4 -10 -6
0 -11 -6 -11 -14 0 -17 106 -49 156 -48 19 1 39 9 46 19 8 10 17 14 21 10 5
-4 2 -12 -6 -17 -16 -10 -23 -43 -8 -38 5 2 8 6 7 8 -5 8 34 50 46 50 5 0 3
-5 -5 -10 -12 -8 -9 -10 11 -10 37 0 72 -30 58 -50 -9 -13 -10 -13 -6 0 2 9
-7 20 -26 28 -41 17 -57 15 -57 -8 0 -18 2 -19 20 -8 18 11 23 10 38 -9 13
-17 23 -21 41 -16 18 5 22 3 16 -7 -6 -10 0 -12 29 -7 20 3 34 2 31 -3 -10
-16 47 -20 113 -8 59 10 63 13 37 19 -19 4 -23 7 -10 8 11 0 31 -2 44 -6 l23
-6 -23 -14 c-23 -13 -22 -13 16 -8 l40 4 -39 -12 c-22 -8 -35 -17 -29 -20 6
-4 18 -4 27 -1 9 3 23 0 32 -7 10 -9 43 -13 93 -12 49 0 67 -2 51 -7 -24 -8
-24 -8 6 -9 17 -1 46 -4 63 -7 20 -4 31 -2 31 4 0 6 -6 9 -13 6 -7 -2 -24 -1
-37 4 -19 7 -15 9 22 9 37 0 45 -3 40 -15 -3 -10 -1 -13 5 -9 6 4 23 3 37 -3
17 -6 26 -6 26 0 0 6 -6 10 -14 10 -8 0 -18 5 -22 11 -4 8 1 9 17 3 13 -4 40
-11 59 -15 l35 -7 -35 -2 c-34 -2 -34 -3 10 -11 68 -12 122 -11 114 2 -4 7 1
7 16 -1 12 -6 24 -9 28 -6 3 3 0 6 -7 6 -7 0 -9 5 -6 10 3 6 -2 10 -12 10 -10
0 -23 4 -30 8 -6 4 9 7 33 7 24 0 40 -2 34 -3 -17 -6 -11 -22 8 -20 9 1 26 0
37 -1 16 -1 17 -3 5 -11 -8 -5 -11 -12 -8 -15 4 -4 11 -4 17 0 16 9 15 2865 0
2865 -8 0 -8 4 1 15 14 17 6 47 -12 44 -7 -1 -286 -1 -620 0 l-608 1 -2 367
-3 366 -23 4 c-13 1 -21 -1 -17 -6 3 -6 -5 -19 -17 -31 -21 -20 -23 -20 -35
-4 -7 10 -13 13 -13 7 0 -7 7 -18 15 -27 8 -8 15 -17 15 -19 0 -8 -45 -1 -60
8 -9 5 -11 4 -6 -3 4 -7 1 -12 -8 -12 -17 0 -22 -35 -6 -45 17 -11 -1 -33 -25
-30 -13 1 -24 -1 -23 -4 2 -20 -4 -31 -18 -31 -10 0 -14 6 -10 15 3 8 1 15 -5
15 -7 0 -9 -11 -5 -27 6 -27 6 -27 -9 -9 -8 11 -15 15 -15 9 0 -7 7 -18 15
-27 8 -8 15 -17 15 -19 0 -8 -45 -1 -60 8 -9 5 -11 4 -6 -3 4 -7 1 -12 -8 -12
-17 0 -22 -35 -6 -45 17 -11 -1 -33 -25 -30 -13 1 -24 -1 -23 -4 2 -20 -4 -31
-18 -31 -10 0 -14 6 -10 15 3 8 1 15 -5 15 -7 0 -9 -11 -5 -27 6 -27 6 -27 -9
-9 -8 11 -15 15 -15 9 0 -7 7 -18 15 -27 8 -8 15 -17 15 -19 0 -8 -45 -1 -60
8 -9 5 -11 4 -6 -3 4 -7 1 -12 -8 -12 -17 0 -22 -35 -6 -45 17 -11 -1 -33 -25
-31 -16 2 -25 -3 -28 -16 -3 -12 -13 -17 -27 -16 -13 2 -24 -3 -26 -10 -1 -7
0 -8 3 -2 2 5 9 10 13 10 14 0 7 -35 -9 -50 -13 -12 -14 -12 -9 0 7 18 -18 45
-27 30 -3 -6 -1 -10 5 -10 6 0 9 -4 5 -10 -3 -5 -12 -7 -20 -3 -13 4 -15 -44
-15 -371 0 -258 3 -376 11 -376 5 0 7 5 4 10 -3 6 -1 10 4 10 6 0 11 -4 11 -9
0 -11 19 -9 39 3 10 6 12 5 7 -3 -6 -8 135 -11 576 -9 458 2 583 6 584 16 3
23 4 24 19 12 8 -7 15 -18 15 -24 0 -6 -4 -5 -9 3 -5 8 -11 9 -15 3 -3 -6 6
-17 21 -24 28 -13 47 -55 21 -46 -7 3 -12 13 -12 22 1 9 -4 16 -12 16 -11 0
-13 -121 -11 -698 l2 -697 5 680 5 680 5 -688 c3 -378 2 -687 -2 -687 -5 0 -8
-7 -8 -15 0 -8 6 -15 13 -15 8 0 7 -4 -3 -10 -11 -7 -11 -10 -2 -10 7 0 11 -4
8 -9 -3 -4 -18 -6 -33 -4 -16 2 -40 5 -56 7 -15 2 -30 6 -34 9 -3 4 -22 4 -43
1 -26 -4 -40 -2 -49 9 -8 11 -25 14 -54 11 -30 -2 -38 -1 -27 6 12 8 10 10
-10 11 -14 1 -34 1 -45 0 -17 -2 -18 0 -5 9 12 9 11 10 -7 5 -13 -4 -23 -2
-23 4 0 6 -6 8 -14 5 -8 -3 -17 0 -21 5 -3 6 -12 8 -18 4 -7 -5 -19 -8 -27 -9
-8 -1 -25 -2 -38 -3 -13 0 -20 -5 -17 -11 3 -6 -1 -7 -9 -4 -9 3 -14 10 -11
14 6 9 -53 35 -62 27 -3 -3 6 -9 21 -13 14 -3 23 -10 20 -15 -3 -5 -11 -6 -17
-2 -7 5 -21 8 -31 8 -13 0 -20 8 -22 25 -3 19 -2 22 6 10 8 -12 12 -12 18 -2
6 9 18 8 50 -8 43 -21 80 -28 52 -10 -13 9 -13 10 0 11 8 0 -1 6 -20 13 -19 7
-41 11 -47 8 -7 -2 -13 1 -13 7 0 6 -7 8 -15 5 -8 -4 -15 -1 -15 6 0 6 -4 8
-10 5 -5 -3 -10 -1 -10 5 0 7 -8 9 -20 5 -11 -3 -20 -2 -20 3 0 5 -10 14 -23
19 -19 9 -26 7 -38 -8 -14 -17 -16 -17 -44 5 -22 18 -25 24 -14 31 8 5 11 5 7
0 -4 -4 0 -14 10 -21 23 -18 32 -17 32 3 0 9 -3 13 -7 10 -3 -4 -15 0 -25 10
-10 9 -18 13 -18 8 0 -4 -7 -2 -15 5 -8 6 -19 9 -25 5 -5 -3 -10 -2 -10 2 0
12 -32 30 -69 38 -31 7 -33 5 -28 -14 3 -11 0 -24 -5 -28 -7 -3 -8 -1 -4 6 6
8 0 10 -21 6 -25 -5 -26 -4 -5 4 32 15 27 21 -10 16 -30 -4 -31 -4 -8 5 24 9
23 9 -7 7 -37 -4 -36 8 2 15 13 3 26 0 28 -5 2 -7 11 -7 23 -2 19 8 19 8 -1
13 -11 2 -31 13 -44 23 -13 10 -28 15 -35 11 -6 -3 -40 -7 -76 -8 -36 0 -54 2
-40 5 31 8 14 20 -22 16 -17 -2 -28 2 -28 9 0 15 56 20 65 6 7 -12 25 -4 25
11 0 5 -7 9 -15 9 -8 0 -15 4 -15 10 0 5 -9 14 -20 20 -17 9 -19 8 -14 -7 5
-14 4 -15 -4 -4 -5 7 -14 11 -20 7 -6 -3 -14 -2 -17 4 -5 8 -11 7 -21 -1 -8
-6 -14 -8 -14 -4 0 4 -7 2 -15 -5 -10 -9 -15 -9 -15 -1 0 6 5 11 11 11 8 0 7
5 -1 15 -11 13 -10 14 4 9 10 -4 18 0 23 12 6 15 -10 33 -19 22 -6 -6 -36 27
-32 34 8 13 -39 -1 -48 -14 -6 -10 -8 -10 -8 0 0 6 -8 12 -17 13 -14 0 -15 2
-3 6 8 3 18 11 22 17 5 7 8 7 8 -2 0 -7 5 -10 10 -7 6 3 -2 16 -17 29 -22 18
-37 22 -73 20 -42 -4 -43 -3 -20 9 14 7 27 9 28 5 2 -4 8 -8 14 -8 14 0 -9 26
-46 53 -22 15 -27 16 -17 4 8 -10 9 -17 3 -17 -14 0 -33 35 -24 44 3 4 -1 4
-10 1 -9 -4 -19 -1 -24 6 -5 8 -3 10 6 4 8 -5 11 -3 8 6 -3 8 -11 13 -17 11
-7 -1 -10 2 -7 7 3 5 -6 20 -21 33 -34 29 -116 125 -167 195 -33 47 -40 52
-71 49 -27 -2 -32 0 -24 11 6 7 15 11 19 8 4 -3 10 2 14 10 3 8 0 17 -6 21 -7
4 -8 3 -4 -4 4 -7 3 -12 -2 -12 -5 0 -12 9 -15 20 -3 12 -1 18 5 14 6 -4 5 3
-1 15 -7 11 -16 21 -21 21 -6 0 -9 3 -8 8 3 15 -22 62 -33 62 -6 0 -9 6 -6 14
3 8 -1 20 -9 26 -8 7 -14 9 -14 4 0 -4 -5 -3 -12 4 -7 7 -20 12 -30 12 -15 0
-18 8 -17 53 0 38 3 47 9 32 16 -39 23 -60 22 -67 -1 -5 5 -8 13 -8 13 0 12 6
-5 40 -11 22 -18 40 -15 40 3 0 0 6 -6 13 -7 7 -20 13 -30 13 -12 0 -15 -4 -9
-10 15 -15 12 -25 -8 -21 -9 1 -16 8 -14 14 1 6 -7 28 -18 48 -20 37 -27 63
-13 50 3 -4 12 -2 20 4 10 9 13 8 14 -2 0 -8 4 -5 9 6 12 29 12 38 -2 32 -9
-3 -14 9 -15 42 -2 44 -32 135 -33 99 0 -10 -7 -18 -16 -18 -12 0 -14 4 -7 13
11 13 10 52 0 80 -15 37 -16 48 -7 42 11 -7 12 -3 14 45 0 17 -3 28 -9 26 -5
-1 -9 -10 -7 -19 1 -8 -3 -19 -9 -23 -9 -5 -10 2 -6 26 4 18 7 37 7 42 0 5 5
6 10 3 14 -9 13 48 -2 63 -9 9 -9 12 0 12 7 0 12 14 12 34 0 42 -9 68 -21 60
-5 -3 -9 2 -9 10 0 9 5 16 11 16 5 0 8 4 4 9 -3 5 -1 12 5 16 12 8 13 152 1
159 -5 4 -11 0 -13 -6 -3 -7 -5 2 -5 20 0 18 4 28 7 21 4 -6 14 9 24 36 8 26
13 51 10 56 -3 5 -1 17 5 27 10 18 -2 89 -22 127 -7 13 -6 20 2 23 6 2 11 11
11 20 0 10 9 -1 19 -23 11 -22 20 -32 20 -22 1 9 1 19 1 22 1 3 7 23 15 45 8
22 12 40 8 40 -3 0 0 7 7 15 10 12 10 15 -1 15 -10 1 -10 4 3 13 12 10 14 17
6 31 -7 12 -7 17 0 12 11 -7 38 21 28 31 -3 3 -6 0 -6 -8 -1 -8 -7 0 -15 16
l-14 30 5 -30 c4 -27 4 -28 -6 -7 -6 14 -15 20 -21 16 -7 -4 -10 -2 -7 6 6 19
45 22 52 5 3 -8 11 -15 17 -15 8 0 8 4 -1 15 -11 13 -10 14 4 9 12 -5 15 -2
10 11 -8 21 15 66 30 58 6 -3 8 -2 3 2 -4 5 0 16 9 26 14 16 14 18 -5 24 -12
3 -21 11 -21 16 0 12 7 11 30 -1 26 -14 34 13 9 36 -23 21 -25 36 -3 32 27 -5
28 21 2 31 -32 13 -6 13 28 1 31 -12 48 -2 38 24 -6 15 -8 15 -24 1 -15 -13
-17 -13 -17 0 0 8 3 13 5 10 3 -3 11 0 19 6 7 6 13 8 13 3 0 -5 12 9 26 31 17
26 24 32 21 17 -3 -12 -1 -20 4 -16 5 3 9 11 9 19 0 7 6 15 13 18 6 3 20 19
30 36 15 26 15 30 3 25 -9 -3 -13 -10 -10 -15 3 -5 2 -9 -3 -8 -21 4 -33 -2
-33 -18 0 -23 -13 -7 -15 18 -1 15 4 19 19 17 18 -3 21 3 24 40 2 23 8 42 14
42 7 0 22 9 34 21 16 15 24 17 29 8 5 -8 4 -10 -3 -5 -7 4 -12 2 -12 -3 0 -25
54 -6 55 19 1 15 33 49 40 42 5 -4 5 -1 1 6 -4 7 -2 12 6 12 18 0 80 64 72 73
-4 4 -2 7 5 7 6 0 11 7 9 16 -2 10 3 19 10 21 8 3 10 -1 5 -14 -5 -14 -1 -13
21 6 25 24 22 52 -4 36 -9 -6 -9 -10 1 -17 10 -7 9 -8 -5 -4 -10 4 -25 1 -32
-5 -10 -8 -14 -8 -14 0 0 6 -5 11 -11 11 -8 0 -8 -4 -2 -12 15 -19 7 -48 -18
-72 l-22 -21 16 24 c13 20 14 28 4 40 -9 12 -9 13 1 7 7 -4 12 -1 12 8 0 9 -6
16 -12 16 -7 0 -5 5 5 11 9 5 22 7 27 4 13 -8 52 14 45 25 -3 6 1 7 9 4 19 -7
22 26 5 43 -9 9 -7 11 7 9 12 -2 18 -10 16 -22 -3 -15 -1 -16 12 -5 9 7 13 17
10 22 -3 5 2 9 11 9 11 0 15 5 12 14 -4 10 -1 13 9 9 12 -5 11 -10 -8 -31
l-23 -24 25 7 c46 14 54 27 28 46 -12 10 -19 21 -15 25 4 4 15 0 26 -10 18
-16 21 -16 54 7 20 14 33 27 30 31 -4 3 1 6 9 6 9 0 21 7 29 16 10 13 10 17 0
24 -9 5 -10 10 -3 14 6 4 15 -2 21 -11 6 -10 11 -12 11 -5 0 6 6 12 13 12 8 0
21 8 30 18 13 15 14 21 4 32 -10 12 -9 12 3 4 20 -13 45 -12 45 3 0 6 3 15 8
19 4 4 7 1 7 -7 0 -11 2 -11 10 1 5 8 13 15 17 16 16 1 63 27 63 35 0 4 12 10
27 14 21 5 24 8 12 16 -12 7 -12 9 1 10 8 1 22 1 30 0 13 -2 13 0 1 8 -10 6
-21 6 -33 0 -10 -6 -23 -7 -28 -4 -22 13 -8 20 39 20 30 0 47 -4 43 -10 -3 -5
2 -4 11 4 9 7 17 20 17 27 0 8 5 14 11 14 5 0 7 -4 4 -10 -8 -12 5 -13 25 0
11 7 3 12 -32 21 -35 10 -43 15 -34 25 9 10 14 9 26 -1 23 -19 43 -23 68 -14
15 6 21 5 17 -1 -4 -6 10 -1 29 10 20 11 51 29 70 39 19 11 37 17 42 13 4 -4
3 -1 -1 7 -6 11 -4 13 7 9 8 -4 29 2 46 12 16 10 34 16 38 12 4 -4 3 -1 -1 7
-6 11 -4 13 8 8 10 -3 17 -2 17 3 0 12 -40 34 -48 26 -3 -3 0 -6 6 -6 20 0 13
-14 -16 -34 l-27 -20 19 22 c11 12 16 25 13 29 -12 11 15 33 40 33 20 0 23 3
14 13 -11 14 -5 27 11 27 5 0 6 -5 3 -11 -8 -11 36 11 46 24 9 12 109 26 109
14 0 -5 5 -5 13 1 7 6 22 9 34 6 28 -8 39 13 12 21 -17 6 -19 9 -8 16 17 11 5
10 -43 -3z m-305 -2115 c-24 -9 -13 -18 22 -19 19 0 35 2 35 5 0 3 261 6 580
6 l580 0 0 -1435 c0 -972 -3 -1431 -10 -1424 -7 7 -9 474 -8 1417 l3 1407
-570 2 -570 3 570 5 570 5 -572 3 c-449 1 -572 -1 -576 -10 -4 -10 -8 -10 -15
1 -10 13 -36 6 -28 -8 3 -4 -4 -8 -15 -8 -15 -1 -19 5 -19 28 0 21 5 29 18 28
10 0 12 -3 5 -6z m457 -483 c0 -7 -190 -10 -550 -10 -360 0 -550 3 -550 10 0
7 190 10 550 10 360 0 550 -3 550 -10z"/>
<path d="M4304 3068 c-4 -7 -3 -8 4 -4 7 4 12 2 12 -3 0 -8 204 -12 653 -13
l652 -3 -657 -5 c-361 -3 -654 -2 -651 3 2 4 -1 7 -7 7 -7 0 -10 -82 -8 -267
l3 -268 419 -2 c372 -2 421 -1 431 13 10 15 13 15 29 -1 16 -16 20 -13 81 51
36 37 65 72 65 76 0 5 4 7 8 4 5 -3 23 10 41 28 28 29 30 34 17 46 -9 7 -13
17 -9 23 3 6 1 7 -5 3 -12 -7 -12 -46 1 -46 13 0 -24 -34 -39 -36 -8 -1 -17 2
-20 7 -3 5 -2 9 3 8 24 -6 40 14 38 45 -2 26 1 33 14 31 9 -1 30 2 46 6 27 8
28 7 11 -6 -10 -8 -24 -16 -30 -18 -6 -2 -8 -7 -4 -11 10 -11 58 35 50 48 -11
17 -11 76 0 76 5 0 16 -6 24 -14 17 -17 7 -49 -12 -42 -8 3 -14 1 -14 -3 0 -5
6 -11 12 -13 14 -5 38 15 38 31 0 6 5 11 11 11 5 0 7 5 3 12 -5 7 -2 9 8 5 9
-3 21 0 27 6 13 13 15 31 2 23 -5 -3 -15 2 -22 12 -13 16 -13 16 5 2 18 -14
19 -13 13 3 -3 9 -2 17 4 17 6 0 7 5 4 11 -4 6 3 5 14 -3 18 -11 23 -11 31 2
5 8 6 18 4 22 -3 5 -2 8 3 7 19 -3 33 2 33 12 0 5 -4 8 -8 5 -5 -3 -9 1 -9 9
0 12 4 12 19 -2 15 -14 19 -14 16 -3 -2 8 -7 18 -11 21 -5 3 -1 9 8 12 9 4 13
3 10 -3 -3 -6 -1 -10 4 -10 6 0 11 5 11 11 0 5 5 7 12 3 7 -4 8 -3 4 4 -4 7
-2 12 4 12 6 0 15 12 20 26 6 14 14 23 19 19 5 -3 12 -2 15 3 8 13 -27 11 -43
-2 -11 -8 -13 -8 -7 2 6 9 -135 12 -693 12 -518 0 -702 -3 -707 -12z m426
-481 c262 2 410 -1 410 -7 0 -6 -149 -10 -409 -10 l-410 0 -4 -22 c-2 -13 -4
90 -3 227 l1 250 2 -220 3 -220 410 2z"/>
</g>
</svg>
